<?xml version="1.0" standalone="no"?>
<!DOCTYPE svg PUBLIC "-//W3C//DTD SVG 20010904//EN"
 "http://www.w3.org/TR/2001/REC-SVG-20010904/DTD/svg10.dtd">
<svg version="1.0" xmlns="http://www.w3.org/2000/svg"
 width="499.000000pt" height="237.000000pt" viewBox="0 0 499.000000 237.000000"
 preserveAspectRatio="xMidYMid meet">

<g transform="translate(0.000000,237.000000) scale(0.100000,-0.100000)"
fill="#000000" stroke="none">
<path d="M815 1795 c-155 -28 -323 -118 -413 -221 -103 -119 -147 -231 -146
-374 0 -156 53 -279 169 -395 l70 -70 2 45 c2 25 4 111 5 193 l3 147 -27 0
c-31 0 -37 24 -17 63 16 29 28 37 60 37 24 0 29 8 59 93 49 137 54 145 118
175 56 26 61 27 257 27 189 0 203 -1 253 -24 60 -27 68 -38 117 -175 31 -86
34 -91 64 -94 35 -4 71 -43 71 -78 0 -19 -5 -24 -27 -24 l-28 0 3 -147 c1 -82
3 -167 5 -190 l2 -43 47 40 c63 55 143 176 169 258 32 100 30 234 -4 331 -107
305 -460 491 -812 426z"/>
<path d="M740 1431 c-17 -5 -33 -23 -49 -56 -23 -49 -61 -151 -61 -165 0 -13
325 -23 492 -15 l160 7 -6 27 c-4 14 -26 64 -49 111 -36 73 -46 86 -72 91 -41
9 -384 9 -415 0z"/>
<path d="M1889 1352 c-116 -60 -181 -235 -130 -349 28 -62 84 -94 170 -101 82
-5 141 17 191 74 35 40 38 69 10 84 -17 9 -27 4 -63 -30 -81 -73 -147 -62
-147 26 0 65 38 171 76 211 45 48 70 42 108 -25 27 -47 34 -53 59 -50 26 3 32
10 53 68 34 92 32 110 -9 110 -18 0 -43 -7 -55 -16 -21 -14 -26 -14 -65 5 -62
30 -132 28 -198 -7z"/>
<path d="M4147 1311 c-28 -26 -54 -41 -70 -41 -32 0 -57 -9 -57 -21 0 -6 10
-23 22 -39 l22 -30 -27 -89 c-35 -116 -35 -144 1 -171 23 -19 37 -21 93 -18
54 3 73 9 103 31 44 34 49 61 9 53 -56 -12 -60 2 -26 116 l30 103 39 5 c34 4
39 8 39 30 0 20 -6 26 -26 28 -23 3 -26 7 -25 40 1 37 0 37 -41 40 -37 3 -47
-2 -86 -37z"/>
<path d="M2381 1269 c-110 -22 -125 -124 -19 -124 45 0 83 35 74 68 -6 23 22
20 38 -5 13 -21 -13 -104 -32 -101 -151 31 -245 -11 -245 -110 0 -55 35 -88
100 -94 40 -4 54 0 86 21 l38 26 18 -21 c23 -29 97 -37 139 -15 33 17 52 43
52 72 0 13 -3 14 -14 5 -25 -21 -28 6 -6 75 24 79 25 105 5 143 -25 49 -142
79 -234 60z m46 -241 c-15 -37 -53 -50 -63 -23 -9 21 23 55 53 55 22 0 23 -1
10 -32z"/>
<path d="M2791 1269 c-25 -5 -52 -15 -60 -24 -13 -13 -13 -16 1 -32 15 -17 13
-27 -19 -133 -19 -63 -44 -125 -55 -137 -33 -36 -15 -43 107 -43 116 0 146 10
112 35 -10 7 -17 21 -17 31 0 37 61 214 73 214 7 -1 21 -15 32 -33 27 -43 74
-49 110 -13 32 32 33 76 2 111 -30 35 -85 38 -127 7 -25 -19 -31 -20 -36 -8
-5 13 -57 38 -73 35 -3 -1 -26 -5 -50 -10z"/>
<path d="M3238 1269 c-55 -16 -113 -71 -132 -126 -22 -64 -20 -131 4 -171 38
-63 155 -91 235 -58 43 18 85 62 85 89 0 16 -5 18 -27 13 -77 -18 -103 -18
-128 -2 -14 9 -25 25 -25 36 0 18 7 20 67 20 89 0 147 27 163 76 16 46 -2 89
-44 111 -37 19 -147 26 -198 12z m82 -84 c0 -37 -28 -75 -55 -75 -19 0 -19 2
0 47 30 70 55 83 55 28z"/>
<path d="M3610 1271 c-38 -8 -80 -28 -80 -38 0 -4 7 -14 15 -23 14 -15 12 -28
-20 -130 -19 -62 -44 -123 -56 -136 -34 -36 -17 -44 94 -44 116 0 136 7 116
38 -11 17 -10 31 5 84 28 100 52 148 75 148 11 0 22 -4 25 -9 3 -4 -8 -45 -24
-90 -36 -99 -37 -115 -5 -146 19 -20 34 -25 75 -25 75 0 120 28 120 75 0 7 -8
12 -17 11 -20 -1 -21 -3 12 109 13 45 21 93 18 106 -20 82 -125 100 -194 33
l-28 -27 -10 25 c-5 15 -13 28 -18 31 -18 10 -70 14 -103 8z"/>
<path d="M4513 1270 c-122 -25 -213 -126 -213 -237 0 -17 10 -45 23 -64 33
-50 78 -69 168 -69 63 0 85 5 130 27 146 75 181 265 59 328 -35 18 -117 25
-167 15z m70 -103 c-12 -63 -52 -179 -68 -197 -21 -23 -45 -15 -45 16 0 37 48
179 71 208 27 35 51 20 42 -27z"/>
<path d="M554 1045 c-11 -44 0 -55 58 -55 30 0 62 -6 73 -14 36 -24 80 6 57
39 -11 16 -120 55 -153 55 -22 0 -30 -6 -35 -25z"/>
<path d="M1232 1047 c-59 -25 -94 -63 -67 -73 8 -4 28 -3 43 1 15 4 53 9 85
12 63 5 74 15 63 58 -5 20 -12 25 -39 25 -17 -1 -56 -11 -85 -23z"/>
<path d="M700 771 c0 -22 -6 -43 -12 -48 -7 -4 -42 -10 -78 -14 l-65 -5 67
-32 c116 -55 208 -75 343 -75 136 0 233 21 345 76 l65 32 -65 5 c-36 3 -71 9
-77 13 -7 5 -13 26 -13 48 l0 39 -255 0 -255 0 0 -39z"/>
</g>
</svg>
